# xmcd CD database file
#
# Track frame offsets:
#	150
#	14215
#	30100
#	56902
#	76887
#	94415
#	114700
#	137910
#	158707
#	175992
#	198670
#
# Disc length: 3073 seconds
#
# Revision: 2
# Processed by: cddbd v1.5PL3 Copyright (c) Steve Scherf et al.
# Submitted via: CDex 1.51
#
DISCID=970bff0b
DTITLE=Jermaine Jackson - The Heritage Collection
DYEAR=1900
DGENRE=R&B
TTITLE0=Daddy's Home
TTITLE1=Let's Get Serious
TTITLE2=Dynamite
TTITLE3=Do What You Do
TTITLE4=I Think It's Love
TTITLE5=Don't Take It Personal
TTITLE6=Two Ships (In The Night)
TTITLE7=I'd Like To Get To Know You
TTITLE8=(Closest Thing To) Perfect
TTITLE9=Do You Remember Me
TTITLE10=You Said, You Said
EXTD=
EXTT0=
EXTT1=
EXTT2=
EXTT3=
EXTT4=
EXTT5=
EXTT6=
EXTT7=
EXTT8=
EXTT9=
EXTT10=
PLAYORDER=
